<mxfile host="app.diagrams.net" agent="Mozilla/5.0 (Windows NT 10.0; Win64; x64; rv:132.0) Gecko/20100101 Firefox/132.0" version="24.8.6">
  <diagram id="R2lEEEUBdFMjLlhIrx00" name="Page-1">
    <mxGraphModel dx="1084" dy="711" grid="1" gridSize="10" guides="1" tooltips="1" connect="1" arrows="1" fold="1" page="1" pageScale="1" pageWidth="850" pageHeight="1100" math="0" shadow="0" extFonts="Permanent Marker^https://fonts.googleapis.com/css?family=Permanent+Marker">
      <root>
        <mxCell id="0" />
        <mxCell id="1" parent="0" />
        <mxCell id="q5SUplfIiiOO4nyNQWKq-34" value="" style="group" vertex="1" connectable="0" parent="1">
          <mxGeometry x="110" y="740" width="350" height="270" as="geometry" />
        </mxCell>
        <mxCell id="q5SUplfIiiOO4nyNQWKq-1" value="UsuÃ¡rio" style="shape=table;startSize=30;container=1;collapsible=1;childLayout=tableLayout;fixedRows=1;rowLines=0;fontStyle=1;align=center;resizeLast=1;fillColor=#ffff88;strokeColor=#000000;" vertex="1" parent="q5SUplfIiiOO4nyNQWKq-34">
          <mxGeometry width="350" height="270" as="geometry" />
        </mxCell>
        <mxCell id="q5SUplfIiiOO4nyNQWKq-2" value="" style="shape=partialRectangle;collapsible=0;dropTarget=0;pointerEvents=0;fillColor=none;points=[[0,0.5],[1,0.5]];portConstraint=eastwest;top=0;left=0;right=0;bottom=1;" vertex="1" parent="q5SUplfIiiOO4nyNQWKq-1">
          <mxGeometry y="30" width="350" height="30" as="geometry" />
        </mxCell>
        <mxCell id="q5SUplfIiiOO4nyNQWKq-3" value="PK" style="shape=partialRectangle;overflow=hidden;connectable=0;fillColor=none;top=0;left=0;bottom=0;right=0;fontStyle=1;" vertex="1" parent="q5SUplfIiiOO4nyNQWKq-2">
          <mxGeometry width="30" height="30" as="geometry">
            <mxRectangle width="30" height="30" as="alternateBounds" />
          </mxGeometry>
        </mxCell>
        <mxCell id="q5SUplfIiiOO4nyNQWKq-4" value="id INT NOT NULL AUTO_INCREMENT" style="shape=partialRectangle;overflow=hidden;connectable=1;fillColor=none;top=0;left=0;bottom=0;right=0;align=left;spacingLeft=6;fontStyle=1;movable=1;resizable=1;rotatable=1;deletable=1;editable=1;locked=0;labelBackgroundColor=default;" vertex="1" parent="q5SUplfIiiOO4nyNQWKq-2">
          <mxGeometry x="30" width="320" height="30" as="geometry">
            <mxRectangle width="320" height="30" as="alternateBounds" />
          </mxGeometry>
        </mxCell>
        <mxCell id="q5SUplfIiiOO4nyNQWKq-5" value="" style="shape=partialRectangle;collapsible=0;dropTarget=0;pointerEvents=0;fillColor=none;points=[[0,0.5],[1,0.5]];portConstraint=eastwest;top=0;left=0;right=0;bottom=0;" vertex="1" parent="q5SUplfIiiOO4nyNQWKq-1">
          <mxGeometry y="60" width="350" height="30" as="geometry" />
        </mxCell>
        <mxCell id="q5SUplfIiiOO4nyNQWKq-6" value="" style="shape=partialRectangle;overflow=hidden;connectable=0;fillColor=none;top=0;left=0;bottom=0;right=0;" vertex="1" parent="q5SUplfIiiOO4nyNQWKq-5">
          <mxGeometry width="30" height="30" as="geometry">
            <mxRectangle width="30" height="30" as="alternateBounds" />
          </mxGeometry>
        </mxCell>
        <mxCell id="q5SUplfIiiOO4nyNQWKq-7" value="email VARCHAR(255) NOT NULL UNIQUE" style="shape=partialRectangle;overflow=hidden;connectable=0;fillColor=none;top=0;left=0;bottom=0;right=0;align=left;spacingLeft=6;" vertex="1" parent="q5SUplfIiiOO4nyNQWKq-5">
          <mxGeometry x="30" width="320" height="30" as="geometry">
            <mxRectangle width="320" height="30" as="alternateBounds" />
          </mxGeometry>
        </mxCell>
        <mxCell id="q5SUplfIiiOO4nyNQWKq-24" value="senha VARCHAR(255) NOT NULL" style="shape=partialRectangle;overflow=hidden;connectable=0;fillColor=none;top=0;left=0;bottom=0;right=0;align=left;spacingLeft=6;" vertex="1" parent="q5SUplfIiiOO4nyNQWKq-34">
          <mxGeometry x="30" y="90" width="240" height="30" as="geometry">
            <mxRectangle width="240" height="30" as="alternateBounds" />
          </mxGeometry>
        </mxCell>
        <mxCell id="q5SUplfIiiOO4nyNQWKq-26" value="nome_de_usuario VARCHAR(255) NOT NULL UNIQUE" style="shape=partialRectangle;overflow=hidden;connectable=0;fillColor=none;top=0;left=0;bottom=0;right=0;align=left;spacingLeft=6;" vertex="1" parent="q5SUplfIiiOO4nyNQWKq-34">
          <mxGeometry x="30" y="120" width="310" height="30" as="geometry">
            <mxRectangle width="240" height="30" as="alternateBounds" />
          </mxGeometry>
        </mxCell>
        <mxCell id="q5SUplfIiiOO4nyNQWKq-27" value="" style="endArrow=none;html=1;rounded=0;" edge="1" parent="q5SUplfIiiOO4nyNQWKq-34">
          <mxGeometry width="50" height="50" relative="1" as="geometry">
            <mxPoint x="30" y="270" as="sourcePoint" />
            <mxPoint x="30" y="90" as="targetPoint" />
          </mxGeometry>
        </mxCell>
        <mxCell id="q5SUplfIiiOO4nyNQWKq-30" value="biografia TEXT" style="shape=partialRectangle;overflow=hidden;connectable=0;fillColor=none;top=0;left=0;bottom=0;right=0;align=left;spacingLeft=6;" vertex="1" parent="q5SUplfIiiOO4nyNQWKq-34">
          <mxGeometry x="30" y="150" width="300" height="30" as="geometry">
            <mxRectangle width="240" height="30" as="alternateBounds" />
          </mxGeometry>
        </mxCell>
        <mxCell id="q5SUplfIiiOO4nyNQWKq-31" value="foto_de_perfil BLOB" style="shape=partialRectangle;overflow=hidden;connectable=0;fillColor=none;top=0;left=0;bottom=0;right=0;align=left;spacingLeft=6;" vertex="1" parent="q5SUplfIiiOO4nyNQWKq-34">
          <mxGeometry x="30" y="180" width="300" height="30" as="geometry">
            <mxRectangle width="240" height="30" as="alternateBounds" />
          </mxGeometry>
        </mxCell>
        <mxCell id="q5SUplfIiiOO4nyNQWKq-32" value="seguindo INT DEFAULT 0" style="shape=partialRectangle;overflow=hidden;connectable=0;fillColor=none;top=0;left=0;bottom=0;right=0;align=left;spacingLeft=6;" vertex="1" parent="q5SUplfIiiOO4nyNQWKq-34">
          <mxGeometry x="30" y="210" width="300" height="30" as="geometry">
            <mxRectangle width="240" height="30" as="alternateBounds" />
          </mxGeometry>
        </mxCell>
        <mxCell id="q5SUplfIiiOO4nyNQWKq-33" value="seguidores INT DEFAULT 0" style="shape=partialRectangle;overflow=hidden;connectable=0;fillColor=none;top=0;left=0;bottom=0;right=0;align=left;spacingLeft=6;" vertex="1" parent="q5SUplfIiiOO4nyNQWKq-34">
          <mxGeometry x="30" y="240" width="300" height="30" as="geometry">
            <mxRectangle width="240" height="30" as="alternateBounds" />
          </mxGeometry>
        </mxCell>
        <mxCell id="q5SUplfIiiOO4nyNQWKq-69" value="" style="group" vertex="1" connectable="0" parent="1">
          <mxGeometry x="810" y="935" width="370" height="210" as="geometry" />
        </mxCell>
        <mxCell id="q5SUplfIiiOO4nyNQWKq-36" value="Postagem" style="shape=table;startSize=30;container=1;collapsible=1;childLayout=tableLayout;fixedRows=1;rowLines=0;fontStyle=1;align=center;resizeLast=1;fillColor=#ffff88;strokeColor=#000000;" vertex="1" parent="q5SUplfIiiOO4nyNQWKq-69">
          <mxGeometry width="370" height="210" as="geometry" />
        </mxCell>
        <mxCell id="q5SUplfIiiOO4nyNQWKq-37" value="" style="shape=partialRectangle;collapsible=0;dropTarget=0;pointerEvents=0;fillColor=none;points=[[0,0.5],[1,0.5]];portConstraint=eastwest;top=0;left=0;right=0;bottom=1;" vertex="1" parent="q5SUplfIiiOO4nyNQWKq-36">
          <mxGeometry y="30" width="370" height="30" as="geometry" />
        </mxCell>
        <mxCell id="q5SUplfIiiOO4nyNQWKq-38" value="PK" style="shape=partialRectangle;overflow=hidden;connectable=0;fillColor=none;top=0;left=0;bottom=0;right=0;fontStyle=1;" vertex="1" parent="q5SUplfIiiOO4nyNQWKq-37">
          <mxGeometry width="30" height="30" as="geometry">
            <mxRectangle width="30" height="30" as="alternateBounds" />
          </mxGeometry>
        </mxCell>
        <mxCell id="q5SUplfIiiOO4nyNQWKq-39" value="id INT NOT NULL AUTO_INCREMENT" style="shape=partialRectangle;overflow=hidden;connectable=1;fillColor=none;top=0;left=0;bottom=0;right=0;align=left;spacingLeft=6;fontStyle=1;movable=1;resizable=1;rotatable=1;deletable=1;editable=1;locked=0;" vertex="1" parent="q5SUplfIiiOO4nyNQWKq-37">
          <mxGeometry x="30" width="340" height="30" as="geometry">
            <mxRectangle width="340" height="30" as="alternateBounds" />
          </mxGeometry>
        </mxCell>
        <mxCell id="q5SUplfIiiOO4nyNQWKq-40" value="" style="shape=partialRectangle;collapsible=0;dropTarget=0;pointerEvents=0;fillColor=none;points=[[0,0.5],[1,0.5]];portConstraint=eastwest;top=0;left=0;right=0;bottom=0;" vertex="1" parent="q5SUplfIiiOO4nyNQWKq-36">
          <mxGeometry y="60" width="370" height="30" as="geometry" />
        </mxCell>
        <mxCell id="q5SUplfIiiOO4nyNQWKq-41" value="" style="shape=partialRectangle;overflow=hidden;connectable=0;fillColor=none;top=0;left=0;bottom=0;right=0;" vertex="1" parent="q5SUplfIiiOO4nyNQWKq-40">
          <mxGeometry width="30" height="30" as="geometry">
            <mxRectangle width="30" height="30" as="alternateBounds" />
          </mxGeometry>
        </mxCell>
        <mxCell id="q5SUplfIiiOO4nyNQWKq-42" value="texto TEXT NOT NULL" style="shape=partialRectangle;overflow=hidden;connectable=0;fillColor=none;top=0;left=0;bottom=0;right=0;align=left;spacingLeft=6;" vertex="1" parent="q5SUplfIiiOO4nyNQWKq-40">
          <mxGeometry x="30" width="340" height="30" as="geometry">
            <mxRectangle width="340" height="30" as="alternateBounds" />
          </mxGeometry>
        </mxCell>
        <mxCell id="q5SUplfIiiOO4nyNQWKq-43" value="data_criacao DATETIME DEFAULT CURRENT_TIMESTAMP" style="shape=partialRectangle;overflow=hidden;connectable=0;fillColor=none;top=0;left=0;bottom=0;right=0;align=left;spacingLeft=6;" vertex="1" parent="q5SUplfIiiOO4nyNQWKq-69">
          <mxGeometry x="30" y="90" width="340" height="30" as="geometry">
            <mxRectangle width="240" height="30" as="alternateBounds" />
          </mxGeometry>
        </mxCell>
        <mxCell id="q5SUplfIiiOO4nyNQWKq-44" value="curtidas INT DEFAULT 0" style="shape=partialRectangle;overflow=hidden;connectable=0;fillColor=none;top=0;left=0;bottom=0;right=0;align=left;spacingLeft=6;" vertex="1" parent="q5SUplfIiiOO4nyNQWKq-69">
          <mxGeometry x="30" y="120" width="310" height="30" as="geometry">
            <mxRectangle width="240" height="30" as="alternateBounds" />
          </mxGeometry>
        </mxCell>
        <mxCell id="q5SUplfIiiOO4nyNQWKq-45" value="" style="endArrow=none;html=1;rounded=0;" edge="1" parent="q5SUplfIiiOO4nyNQWKq-69">
          <mxGeometry width="50" height="50" relative="1" as="geometry">
            <mxPoint x="30" y="210" as="sourcePoint" />
            <mxPoint x="30" y="90" as="targetPoint" />
          </mxGeometry>
        </mxCell>
        <mxCell id="q5SUplfIiiOO4nyNQWKq-46" value="autor_id INT" style="shape=partialRectangle;overflow=hidden;connectable=0;fillColor=none;top=0;left=0;bottom=0;right=0;align=left;spacingLeft=6;" vertex="1" parent="q5SUplfIiiOO4nyNQWKq-69">
          <mxGeometry x="30" y="150" width="300" height="30" as="geometry">
            <mxRectangle width="240" height="30" as="alternateBounds" />
          </mxGeometry>
        </mxCell>
        <mxCell id="q5SUplfIiiOO4nyNQWKq-47" value="(autor_id) REFERENCES Usuario(id)" style="shape=partialRectangle;overflow=hidden;connectable=0;fillColor=none;top=0;left=0;bottom=0;right=0;align=left;spacingLeft=6;" vertex="1" parent="q5SUplfIiiOO4nyNQWKq-69">
          <mxGeometry x="30" y="180" width="300" height="30" as="geometry">
            <mxRectangle width="240" height="30" as="alternateBounds" />
          </mxGeometry>
        </mxCell>
        <mxCell id="q5SUplfIiiOO4nyNQWKq-50" value="FK" style="shape=partialRectangle;overflow=hidden;connectable=0;fillColor=none;top=0;left=0;bottom=0;right=0;fontStyle=1;" vertex="1" parent="q5SUplfIiiOO4nyNQWKq-69">
          <mxGeometry y="180" width="30" height="30" as="geometry">
            <mxRectangle width="30" height="30" as="alternateBounds" />
          </mxGeometry>
        </mxCell>
        <mxCell id="q5SUplfIiiOO4nyNQWKq-77" style="edgeStyle=orthogonalEdgeStyle;rounded=0;orthogonalLoop=1;jettySize=auto;html=1;endArrow=ERmany;endFill=0;endSize=20;strokeWidth=2;exitX=0.986;exitY=0.501;exitDx=0;exitDy=0;exitPerimeter=0;entryX=0;entryY=0.5;entryDx=0;entryDy=0;" edge="1" parent="1" source="q5SUplfIiiOO4nyNQWKq-84" target="q5SUplfIiiOO4nyNQWKq-36">
          <mxGeometry relative="1" as="geometry">
            <mxPoint x="910" y="875" as="targetPoint" />
            <mxPoint x="750" y="874.9999999999998" as="sourcePoint" />
          </mxGeometry>
        </mxCell>
        <mxCell id="q5SUplfIiiOO4nyNQWKq-79" value="&lt;font style=&quot;font-size: 20px;&quot;&gt;1:N&lt;br&gt;&lt;/font&gt;" style="edgeLabel;html=1;align=center;verticalAlign=middle;resizable=0;points=[];" vertex="1" connectable="0" parent="q5SUplfIiiOO4nyNQWKq-77">
          <mxGeometry x="-0.0721" y="-2" relative="1" as="geometry">
            <mxPoint x="-4" y="-17" as="offset" />
          </mxGeometry>
        </mxCell>
        <mxCell id="q5SUplfIiiOO4nyNQWKq-76" style="edgeStyle=orthogonalEdgeStyle;rounded=0;orthogonalLoop=1;jettySize=auto;html=1;entryX=0.022;entryY=0.491;entryDx=0;entryDy=0;endArrow=ERmandOne;endFill=0;startSize=6;endSize=20;strokeWidth=2;entryPerimeter=0;" edge="1" parent="1" source="q5SUplfIiiOO4nyNQWKq-1" target="q5SUplfIiiOO4nyNQWKq-84">
          <mxGeometry relative="1" as="geometry">
            <mxPoint x="610" y="875" as="targetPoint" />
          </mxGeometry>
        </mxCell>
        <mxCell id="q5SUplfIiiOO4nyNQWKq-78" value="&lt;font style=&quot;font-size: 20px;&quot;&gt;1:1&lt;br&gt;&lt;/font&gt;" style="edgeLabel;html=1;align=center;verticalAlign=middle;resizable=0;points=[];" vertex="1" connectable="0" parent="q5SUplfIiiOO4nyNQWKq-76">
          <mxGeometry x="-0.0157" y="1" relative="1" as="geometry">
            <mxPoint x="1" y="-14" as="offset" />
          </mxGeometry>
        </mxCell>
        <mxCell id="q5SUplfIiiOO4nyNQWKq-80" value="" style="group" vertex="1" connectable="0" parent="1">
          <mxGeometry x="155" y="1100" width="260" height="180" as="geometry" />
        </mxCell>
        <mxCell id="q5SUplfIiiOO4nyNQWKq-81" style="edgeStyle=orthogonalEdgeStyle;rounded=0;orthogonalLoop=1;jettySize=auto;html=1;endArrow=none;endFill=0;startArrow=ERmany;startFill=0;endSize=6;startSize=20;strokeWidth=2;" edge="1" parent="q5SUplfIiiOO4nyNQWKq-80" source="q5SUplfIiiOO4nyNQWKq-52">
          <mxGeometry relative="1" as="geometry">
            <mxPoint x="130" y="-90" as="targetPoint" />
          </mxGeometry>
        </mxCell>
        <mxCell id="q5SUplfIiiOO4nyNQWKq-82" value="&lt;font style=&quot;font-size: 20px;&quot;&gt;1:N&lt;/font&gt;" style="edgeLabel;html=1;align=center;verticalAlign=middle;resizable=0;points=[];" vertex="1" connectable="0" parent="q5SUplfIiiOO4nyNQWKq-81">
          <mxGeometry x="0.1871" relative="1" as="geometry">
            <mxPoint x="-25" y="-21" as="offset" />
          </mxGeometry>
        </mxCell>
        <mxCell id="q5SUplfIiiOO4nyNQWKq-52" value="Seguidores" style="shape=table;startSize=30;container=1;collapsible=1;childLayout=tableLayout;fixedRows=1;rowLines=0;fontStyle=1;align=center;resizeLast=1;fillColor=#ffff88;strokeColor=#000000;" vertex="1" parent="q5SUplfIiiOO4nyNQWKq-80">
          <mxGeometry width="260" height="180" as="geometry" />
        </mxCell>
        <mxCell id="q5SUplfIiiOO4nyNQWKq-53" value="" style="shape=partialRectangle;collapsible=0;dropTarget=0;pointerEvents=0;fillColor=none;points=[[0,0.5],[1,0.5]];portConstraint=eastwest;top=0;left=0;right=0;bottom=1;" vertex="1" parent="q5SUplfIiiOO4nyNQWKq-52">
          <mxGeometry y="30" width="260" height="30" as="geometry" />
        </mxCell>
        <mxCell id="q5SUplfIiiOO4nyNQWKq-54" value="PK" style="shape=partialRectangle;overflow=hidden;connectable=0;fillColor=none;top=0;left=0;bottom=0;right=0;fontStyle=1;" vertex="1" parent="q5SUplfIiiOO4nyNQWKq-53">
          <mxGeometry width="30" height="30" as="geometry">
            <mxRectangle width="30" height="30" as="alternateBounds" />
          </mxGeometry>
        </mxCell>
        <mxCell id="q5SUplfIiiOO4nyNQWKq-55" value="(seguidor_id, seguido_id)" style="shape=partialRectangle;overflow=hidden;connectable=1;fillColor=none;top=0;left=0;bottom=0;right=0;align=left;spacingLeft=6;fontStyle=1;movable=1;resizable=1;rotatable=1;deletable=1;editable=1;locked=0;" vertex="1" parent="q5SUplfIiiOO4nyNQWKq-53">
          <mxGeometry x="30" width="230" height="30" as="geometry">
            <mxRectangle width="230" height="30" as="alternateBounds" />
          </mxGeometry>
        </mxCell>
        <mxCell id="q5SUplfIiiOO4nyNQWKq-56" value="" style="shape=partialRectangle;collapsible=0;dropTarget=0;pointerEvents=0;fillColor=none;points=[[0,0.5],[1,0.5]];portConstraint=eastwest;top=0;left=0;right=0;bottom=0;" vertex="1" parent="q5SUplfIiiOO4nyNQWKq-52">
          <mxGeometry y="60" width="260" height="30" as="geometry" />
        </mxCell>
        <mxCell id="q5SUplfIiiOO4nyNQWKq-57" value="" style="shape=partialRectangle;overflow=hidden;connectable=0;fillColor=none;top=0;left=0;bottom=0;right=0;" vertex="1" parent="q5SUplfIiiOO4nyNQWKq-56">
          <mxGeometry width="30" height="30" as="geometry">
            <mxRectangle width="30" height="30" as="alternateBounds" />
          </mxGeometry>
        </mxCell>
        <mxCell id="q5SUplfIiiOO4nyNQWKq-58" value="seguidor_id INT" style="shape=partialRectangle;overflow=hidden;connectable=0;fillColor=none;top=0;left=0;bottom=0;right=0;align=left;spacingLeft=6;" vertex="1" parent="q5SUplfIiiOO4nyNQWKq-56">
          <mxGeometry x="30" width="230" height="30" as="geometry">
            <mxRectangle width="230" height="30" as="alternateBounds" />
          </mxGeometry>
        </mxCell>
        <mxCell id="q5SUplfIiiOO4nyNQWKq-59" value="seguido_id INT" style="shape=partialRectangle;overflow=hidden;connectable=0;fillColor=none;top=0;left=0;bottom=0;right=0;align=left;spacingLeft=6;" vertex="1" parent="q5SUplfIiiOO4nyNQWKq-80">
          <mxGeometry x="30" y="90" width="230" height="30" as="geometry">
            <mxRectangle width="240" height="30" as="alternateBounds" />
          </mxGeometry>
        </mxCell>
        <mxCell id="q5SUplfIiiOO4nyNQWKq-60" value="(seguidor_id) REFERENCES Usuario(id)" style="shape=partialRectangle;overflow=hidden;connectable=0;fillColor=none;top=0;left=0;bottom=0;right=0;align=left;spacingLeft=6;" vertex="1" parent="q5SUplfIiiOO4nyNQWKq-80">
          <mxGeometry x="30" y="120" width="230" height="30" as="geometry">
            <mxRectangle width="240" height="30" as="alternateBounds" />
          </mxGeometry>
        </mxCell>
        <mxCell id="q5SUplfIiiOO4nyNQWKq-61" value="" style="endArrow=none;html=1;rounded=0;" edge="1" parent="q5SUplfIiiOO4nyNQWKq-80">
          <mxGeometry width="50" height="50" relative="1" as="geometry">
            <mxPoint x="30" y="180" as="sourcePoint" />
            <mxPoint x="30" y="90" as="targetPoint" />
          </mxGeometry>
        </mxCell>
        <mxCell id="q5SUplfIiiOO4nyNQWKq-62" value="(seguido_id) REFERENCES Usuario(id)" style="shape=partialRectangle;overflow=hidden;connectable=0;fillColor=none;top=0;left=0;bottom=0;right=0;align=left;spacingLeft=6;" vertex="1" parent="q5SUplfIiiOO4nyNQWKq-80">
          <mxGeometry x="30" y="150" width="230" height="30" as="geometry">
            <mxRectangle width="240" height="30" as="alternateBounds" />
          </mxGeometry>
        </mxCell>
        <mxCell id="q5SUplfIiiOO4nyNQWKq-66" value="FK" style="shape=partialRectangle;overflow=hidden;connectable=0;fillColor=none;top=0;left=0;bottom=0;right=0;fontStyle=1;" vertex="1" parent="q5SUplfIiiOO4nyNQWKq-80">
          <mxGeometry y="120" width="30" height="30" as="geometry">
            <mxRectangle width="30" height="30" as="alternateBounds" />
          </mxGeometry>
        </mxCell>
        <mxCell id="q5SUplfIiiOO4nyNQWKq-67" value="FK" style="shape=partialRectangle;overflow=hidden;connectable=0;fillColor=none;top=0;left=0;bottom=0;right=0;fontStyle=1;" vertex="1" parent="q5SUplfIiiOO4nyNQWKq-80">
          <mxGeometry y="150" width="30" height="30" as="geometry">
            <mxRectangle width="30" height="30" as="alternateBounds" />
          </mxGeometry>
        </mxCell>
        <mxCell id="q5SUplfIiiOO4nyNQWKq-84" value="&lt;b&gt;Homepage&lt;/b&gt;" style="shape=rhombus;perimeter=rhombusPerimeter;whiteSpace=wrap;html=1;align=center;fillColor=#ffff88;strokeColor=#000000;" vertex="1" parent="1">
          <mxGeometry x="550" y="1010" width="120" height="60" as="geometry" />
        </mxCell>
      </root>
    </mxGraphModel>
  </diagram>
</mxfile>
